<?xml version="1.0" encoding="utf-8"?>
<svg viewBox="0 0 500 500" xmlns="http://www.w3.org/2000/svg" xmlns:bx="https://boxy-svg.com">
  <g transform="matrix(1, 0, 0, 1, 52.731327, -139.852661)"/>
  <path style="fill: rgb(26, 26, 26);" d="M 233.462 378.944 C 235.412 379.052 237.372 379.107 239.34 379.107 C 320.525 379.107 371.266 291.221 330.674 220.913 C 311.834 188.282 277.018 168.181 239.34 168.181 C 189.226 168.181 151.271 201.677 138.68 243.847 L 138.689 243.839 C 152.244 206.219 187.767 177.115 233.373 177.115 C 269.277 177.115 302.453 196.269 320.405 227.363 C 359.071 294.334 310.729 378.87 233.419 378.934 L 233.462 378.944 Z" transform="matrix(0.674071, 0.738666, -0.738666, 0.674071, 282.059579, -98.7052)" bx:origin="0.491 0.484"/>
</svg>