<?xml version="1.0" encoding="utf-8"?>
<svg viewBox="0 0 500 500" xmlns="http://www.w3.org/2000/svg" xmlns:bx="https://boxy-svg.com">
  <path d="M 125 375 C 173 375 250 250 250 125 C 250 250 327 375 375 375 C 375 375 125 375 125 375 Z" style="fill: rgb(26, 26, 26);" bx:origin="0.5 0.5"/>
  <path style="fill: rgb(26, 26, 26);" d="M 368.509 381.357 C 372.488 382.483 369.814 380.229 370.143 380.211 C 383.135 379.491 394.919 363.027 388.121 351.252 C 384.966 345.787 379.135 342.421 372.825 342.421 C 364.433 342.421 358.076 348.031 355.968 355.093 L 355.969 355.091 C 358.239 348.791 364.188 343.917 371.826 343.917 C 377.839 343.917 383.395 347.125 386.401 352.332 C 392.877 363.548 380.869 381.151 367.922 381.162 L 368.509 381.357 Z" transform="matrix(0.674071, 0.738666, -0.738666, 0.674071, 387.817306, -159.891321)" bx:origin="0.491 0.484"/>
  <path style="fill: rgb(26, 26, 26);" d="M 120.038 341.517 C 124.017 340.391 121.343 342.645 121.672 342.663 C 134.664 343.383 146.448 359.847 139.65 371.622 C 136.495 377.087 130.664 380.453 124.354 380.453 C 115.962 380.453 109.605 374.843 107.497 367.781 L 107.498 367.783 C 109.768 374.083 115.717 378.957 123.355 378.957 C 129.368 378.957 134.924 375.749 137.93 370.542 C 144.406 359.326 132.398 341.723 119.451 341.712 L 120.038 341.517 Z" transform="matrix(-0.674071, 0.738666, -0.738666, -0.674071, 478.679253, 510.913795)" bx:origin="0.491 0.516"/>
</svg>