<?xml version="1.0" encoding="utf-8"?>
<svg viewBox="0 0 600 900" xmlns="http://www.w3.org/2000/svg" xmlns:bx="https://boxy-svg.com">
  <path d="M 12.5 124 L 112.5 124 C 108.5 124 89.3 224 93.3 224 L 31.7 224 C 35.7 224 16.5 124 12.5 124 Z" style="fill: rgb(26, 26, 26);" transform="matrix(1, 0, 0, 1.0044640302658079, 12.5, -3.552713678800501e-15)" bx:origin="0.5 0.5"/>
  <path d="M 38.886 92.667 L 35.848 92.558 L 38.189 62.23 L 31.256 59.258 L 33.44 37.248 L 29.317 36.897 L 36.566 10.653 L 40.546 37.791 L 36.947 37.467 L 34.998 57.567 L 41.222 60.53 L 38.886 92.667 Z" style="fill: rgb(26, 26, 26);" transform="matrix(0.9928879737854003, -0.11958345207653932, 0.11905200034379958, 0.9973202557509353, 6.600609779357911, 4.586692158756588)" bx:origin="0.5 0.5"/>
  <path d="M 12.5 125.558 C 36.5 125.558 75 62.779 75 0 C 75 62.779 113.5 125.558 137.5 125.558 C 137.5 125.558 12.5 125.558 12.5 125.558 Z" style="fill: rgb(26, 26, 26);" bx:origin="0.5 0.5"/>
  <g transform="matrix(1, 0, 0, 1, 149.892838, -0.000132)">
    <path style="fill: rgb(26, 26, 26);" d="M 335.153 93.499 C 337.175 92.945 335.814 94.051 335.982 94.06 C 342.584 94.415 348.704 102.566 345.248 108.349 C 343.646 111.033 340.684 113.018 337.48 113.018 C 333.215 113.018 329.852 109.865 328.782 106.397 L 328.782 106.398 C 329.936 109.491 335.028 110.687 337.265 110.653 C 339.156 110.624 342.051 109.158 343.322 106.15 C 344.948 102.301 341.431 93.6 334.856 93.594 L 335.153 93.499 Z" transform="matrix(-0.316824, 0.948484, -0.948484, -0.316824, 543.809829, -185.090946)" bx:origin="0.491 0.516"/>
    <path style="fill: rgb(26, 26, 26);" d="M 407.983 113.106 C 410.005 113.66 408.644 112.554 408.812 112.545 C 415.414 112.19 421.534 104.039 418.078 98.256 C 416.476 95.572 413.514 93.587 410.31 93.587 C 406.045 93.587 402.682 96.74 401.612 100.208 L 401.612 100.207 C 402.766 97.114 407.858 95.918 410.095 95.952 C 411.986 95.981 414.881 97.447 416.152 100.455 C 417.778 104.304 414.261 113.005 407.686 113.011 L 407.983 113.106 Z" transform="matrix(0.316824, 0.948484, -0.948484, 0.316824, 379.03492, -319.626818)" bx:origin="0.491 0.484"/>
  </g>
  <g transform="matrix(1, 0, 0, 1, 299.792725, 0.005646)">
    <path style="fill: rgb(26, 26, 26);" d="M 159.205 108.831 L 158.909 108.929 C 165.437 108.934 170.308 116.449 167.043 122.104 C 165.527 124.729 163.187 126.695 160.155 126.695 C 156.304 126.695 154.027 125.249 152.883 122.073 L 152.882 122.072 C 153.945 125.632 157.485 129.082 161.716 129.082 C 164.897 129.082 168.038 126.97 169.628 124.214 C 173.056 118.278 166.579 109.771 160.029 109.408 C 159.863 109.399 161.211 108.263 159.205 108.831 Z" transform="matrix(-0.674071, 0.738666, -0.738666, -0.674071, 360.423174, 78.978252)" bx:origin="0.491 0.516"/>
    <path style="fill: rgb(26, 26, 26);" d="M 284.04 129.169 L 283.744 129.071 C 290.272 129.066 295.143 121.551 291.878 115.896 C 290.362 113.271 288.022 111.305 284.99 111.305 C 281.139 111.305 278.862 112.751 277.718 115.927 L 277.717 115.928 C 278.78 112.368 282.32 108.918 286.551 108.918 C 289.732 108.918 292.873 111.03 294.463 113.786 C 297.891 119.722 291.414 128.229 284.864 128.592 C 284.698 128.601 286.046 129.737 284.04 129.169 Z" transform="matrix(0.674071, 0.738666, -0.738666, 0.674071, 181.641562, -173.673318)" bx:origin="0.491 0.484"/>
  </g>
  <g>
    <path style="fill: rgb(26, 26, 26);" d="M 335.153 93.499 C 337.175 92.945 335.814 94.051 335.982 94.06 C 342.584 94.415 348.704 102.566 345.248 108.349 C 343.646 111.033 340.684 113.018 337.48 113.018 C 333.215 113.018 329.852 109.865 328.782 106.397 L 328.782 106.398 C 329.936 109.491 335.028 110.687 337.265 110.653 C 339.156 110.624 342.051 109.158 343.322 106.15 C 344.948 102.301 341.431 93.6 334.856 93.594 L 335.153 93.499 Z" transform="matrix(-0.316824, 0.948484, -0.948484, -0.316824, 543.809829, -185.090946)" bx:origin="0.491 0.516"/>
    <path style="fill: rgb(26, 26, 26);" d="M 407.983 113.106 C 410.005 113.66 408.644 112.554 408.812 112.545 C 415.414 112.19 421.534 104.039 418.078 98.256 C 416.476 95.572 413.514 93.587 410.31 93.587 C 406.045 93.587 402.682 96.74 401.612 100.208 L 401.612 100.207 C 402.766 97.114 407.858 95.918 410.095 95.952 C 411.986 95.981 414.881 97.447 416.152 100.455 C 417.778 104.304 414.261 113.005 407.686 113.011 L 407.983 113.106 Z" transform="matrix(0.316824, 0.948484, -0.948484, 0.316824, 379.03492, -319.626818)" bx:origin="0.491 0.484"/>
  </g>
  <g transform="matrix(1, 0, 0, 1, 149.795074, 0.005641)">
    <path style="fill: rgb(26, 26, 26);" d="M 159.205 108.831 L 158.909 108.929 C 165.437 108.934 170.308 116.449 167.043 122.104 C 165.527 124.729 163.187 126.695 160.155 126.695 C 156.304 126.695 154.027 125.249 152.883 122.073 L 152.882 122.072 C 153.945 125.632 157.485 129.082 161.716 129.082 C 164.897 129.082 168.038 126.97 169.628 124.214 C 173.056 118.278 166.579 109.771 160.029 109.408 C 159.863 109.399 161.211 108.263 159.205 108.831 Z" transform="matrix(-0.674071, 0.738666, -0.738666, -0.674071, 360.423174, 78.978252)" bx:origin="0.491 0.516"/>
    <path style="fill: rgb(26, 26, 26);" d="M 284.04 129.169 L 283.744 129.071 C 290.272 129.066 295.143 121.551 291.878 115.896 C 290.362 113.271 288.022 111.305 284.99 111.305 C 281.139 111.305 278.862 112.751 277.718 115.927 L 277.717 115.928 C 278.78 112.368 282.32 108.918 286.551 108.918 C 289.732 108.918 292.873 111.03 294.463 113.786 C 297.891 119.722 291.414 128.229 284.864 128.592 C 284.698 128.601 286.046 129.737 284.04 129.169 Z" transform="matrix(0.674071, 0.738666, -0.738666, 0.674071, 181.641562, -173.673318)" bx:origin="0.491 0.484"/>
  </g>
  <g>
    <path style="fill: rgb(26, 26, 26);" d="M 159.205 108.831 L 158.909 108.929 C 165.437 108.934 170.308 116.449 167.043 122.104 C 165.527 124.729 163.187 126.695 160.155 126.695 C 156.304 126.695 154.027 125.249 152.883 122.073 L 152.882 122.072 C 153.945 125.632 157.485 129.082 161.716 129.082 C 164.897 129.082 168.038 126.97 169.628 124.214 C 173.056 118.278 166.579 109.771 160.029 109.408 C 159.863 109.399 161.211 108.263 159.205 108.831 Z" transform="matrix(-0.674071, 0.738666, -0.738666, -0.674071, 360.423174, 78.978252)" bx:origin="0.491 0.516"/>
    <path style="fill: rgb(26, 26, 26);" d="M 284.04 129.169 L 283.744 129.071 C 290.272 129.066 295.143 121.551 291.878 115.896 C 290.362 113.271 288.022 111.305 284.99 111.305 C 281.139 111.305 278.862 112.751 277.718 115.927 L 277.717 115.928 C 278.78 112.368 282.32 108.918 286.551 108.918 C 289.732 108.918 292.873 111.03 294.463 113.786 C 297.891 119.722 291.414 128.229 284.864 128.592 C 284.698 128.601 286.046 129.737 284.04 129.169 Z" transform="matrix(0.674071, 0.738666, -0.738666, 0.674071, 181.641562, -173.673318)" bx:origin="0.491 0.484"/>
  </g>
  <path d="M 175 124.554 L 275 124.554 C 271 124.554 251.8 225 255.8 225 L 194.2 225 C 198.2 225 179 124.554 175 124.554 Z" style="fill: rgb(26, 26, 26);" transform="matrix(1, 0, 0, 1, 0, 0)" bx:origin="0.5 0.5"/>
  <path d="M 201.343 93.078 L 198.305 92.969 L 200.678 62.507 L 193.748 59.522 L 195.955 37.415 L 191.832 37.063 L 199.109 10.703 L 203.061 37.961 L 199.462 37.635 L 197.492 57.824 L 203.713 60.8 L 201.343 93.078 Z" style="fill: rgb(26, 26, 26);" transform="matrix(0.9928250312805175, -0.11957599967718124, 0.11957599967718124, 0.9928250312805175, -4.785846710205071, 24.021129608154297)" bx:origin="0.5 0.5"/>
  <path d="M 125 375 C 173 375 250 250 250 125 C 250 250 327 375 375 375 C 375 375 125 375 125 375 Z" style="fill: rgb(26, 26, 26);" transform="matrix(0.5041700005531311, 0, 0, 0.5041700005531311, 98.95219421386719, -63.02119827270508)" bx:origin="0.5 0.5"/>
  <path d="M 475 124.554 L 575 124.554 C 571 124.554 551.8 225 555.8 225 L 494.2 225 C 498.2 225 479 124.554 475 124.554 Z" style="fill: rgb(26, 26, 26);" bx:origin="0.5 0.5"/>
  <path d="M 501.343 93.078 L 498.305 92.969 L 500.678 62.507 L 493.748 59.522 L 495.955 37.415 L 491.832 37.063 L 499.109 10.703 L 503.061 37.961 L 499.462 37.635 L 497.492 57.824 L 503.713 60.8 L 501.343 93.078 Z" style="fill: rgb(26, 26, 26);" transform="matrix(0.992825, -0.119576, 0.119576, 0.992825, -2.633366, 59.89385)" bx:origin="0.5 0.5"/>
  <path d="M 175 124.554 L 275 124.554 C 271 124.554 251.8 225 255.8 225 L 194.2 225 C 198.2 225 179 124.554 175 124.554 Z" style="fill: rgb(26, 26, 26);" transform="matrix(1, 0, 0, 1, 149.99999999999997, -0.00006100000609876588)" bx:origin="0.5 0.5"/>
  <path d="M 201.343 93.078 L 198.305 92.969 L 200.678 62.507 L 193.748 59.522 L 195.955 37.415 L 191.832 37.063 L 199.109 10.703 L 203.061 37.961 L 199.462 37.635 L 197.492 57.824 L 203.713 60.8 L 201.343 93.078 Z" style="fill: rgb(26, 26, 26);" transform="matrix(0.9928250312805175, -0.11957599967718124, 0.11957599967718124, 0.9928250312805175, 145.21415328979492, 24.021068608148184)" bx:origin="0.5 0.5"/>
  <path d="M 311.973 126.042 C 336.174 126.042 374.995 63.021 374.995 0 C 374.995 63.021 413.816 126.042 438.016 126.042 C 438.016 126.042 311.973 126.042 311.973 126.042 Z" style="fill: rgb(26, 26, 26);" transform="matrix(1, 0, 0, 1, 1.1368683772161603e-13, 2.842170943040401e-14)" bx:origin="0.5 0.5"/>
  <path d="M 311.973 126.042 C 336.174 126.042 374.995 63.021 374.995 0 C 374.995 63.021 413.816 126.042 438.016 126.042 C 438.016 126.042 311.973 126.042 311.973 126.042 Z" style="fill: rgb(26, 26, 26);" transform="matrix(1, 0, 0, 1, 149.99766540527355, 2.842170943040401e-14)" bx:origin="0.5 0.5"/>
  <ellipse style="fill: rgb(26, 26, 26);" transform="matrix(0, -1, 0.999993, 0, 486.020098, 103.934578)" cx="65.973" cy="38.98" rx="4.68" ry="6.707"/>
  <rect x="32" y="349.55" width="86" height="100.45" style="fill: rgb(26, 26, 26);"/>
  <path d="M 51.343 318.078 L 48.305 317.969 L 50.678 287.507 L 43.748 284.522 L 45.955 262.415 L 41.832 262.063 L 49.109 235.703 L 53.061 262.961 L 49.462 262.635 L 47.492 282.824 L 53.713 285.8 L 51.343 318.078 Z" style="fill: rgb(26, 26, 26);" transform="matrix(0.992825, -0.119576, 0.119576, 0.992825, -32.766689, 7.699119)" bx:origin="0.5 0.5"/>
  <path d="M 12.5 350.558 C 36.5 350.558 75 287.779 75 225 C 75 287.779 113.5 350.558 137.5 350.558 C 137.5 350.558 12.5 350.558 12.5 350.558 Z" style="fill: rgb(26, 26, 26);" bx:origin="0.5 0.5"/>
  <path d="M 201.343 318.078 L 198.305 317.969 L 200.678 287.507 L 193.748 284.522 L 195.955 262.415 L 191.832 262.063 L 199.109 235.703 L 203.061 262.961 L 199.462 262.635 L 197.492 282.824 L 203.713 285.8 L 201.343 318.078 Z" style="fill: rgb(26, 26, 26);" transform="matrix(0.992825, -0.119576, 0.119576, 0.992825, -31.690449, 25.63552)" bx:origin="0.5 0.5"/>
  <path d="M 125 375 C 173 375 250 250 250 125 C 250 250 327 375 375 375 C 375 375 125 375 125 375 Z" style="fill: rgb(26, 26, 26);" transform="matrix(0.5041700005531311, 0, 0, 0.5041700005531311, 98.9521942138673, 161.9788055419922)" bx:origin="0.5 0.5"/>
  <path d="M 501.343 318.078 L 498.305 317.969 L 500.678 287.507 L 493.748 284.522 L 495.955 262.415 L 491.832 262.063 L 499.109 235.703 L 503.061 262.961 L 499.462 262.635 L 497.492 282.824 L 503.713 285.8 L 501.343 318.078 Z" style="fill: rgb(26, 26, 26);" transform="matrix(0.992825, -0.119576, 0.119576, 0.992825, -29.537964, 61.508323)" bx:origin="0.5 0.5"/>
  <path d="M 351.343 318.078 L 348.305 317.969 L 350.678 287.507 L 343.748 284.522 L 345.955 262.415 L 341.832 262.063 L 349.109 235.703 L 353.061 262.961 L 349.462 262.635 L 347.492 282.824 L 353.713 285.8 L 351.343 318.078 Z" style="fill: rgb(26, 26, 26);" transform="matrix(0.992825, -0.119576, 0.119576, 0.992825, -30.614206, 43.571923)" bx:origin="0.5 0.5"/>
  <path d="M 311.973 126.042 C 336.174 126.042 374.995 63.021 374.995 0 C 374.995 63.021 413.816 126.042 438.016 126.042 C 438.016 126.042 311.973 126.042 311.973 126.042 Z" style="fill: rgb(26, 26, 26);" transform="matrix(1, 0, 0, 1, 1.1368683772161603e-13, 225)" bx:origin="0.5 0.5"/>
  <path d="M 311.973 126.042 C 336.174 126.042 374.995 63.021 374.995 0 C 374.995 63.021 413.816 126.042 438.016 126.042 C 438.016 126.042 311.973 126.042 311.973 126.042 Z" style="fill: rgb(26, 26, 26);" transform="matrix(1, 0, 0, 1, 149.99766540527355, 225)" bx:origin="0.5 0.5"/>
  <ellipse style="fill: rgb(26, 26, 26);" transform="matrix(0, -1, 0.999998, 0, 486.020352, 328.934906)" cx="65.973" cy="38.98" rx="4.68" ry="6.707"/>
  <rect x="182" y="349.55" width="86" height="100.45" style="fill: rgb(26, 26, 26);"/>
  <rect x="332" y="349.55" width="86" height="100.45" style="fill: rgb(26, 26, 26);"/>
  <rect x="482" y="349.55" width="86" height="100.45" style="fill: rgb(26, 26, 26);"/>
  <path d="M 51.343 543.078 L 48.305 542.969 L 50.678 512.507 L 43.748 509.522 L 45.955 487.415 L 41.832 487.063 L 49.109 460.703 L 53.061 487.961 L 49.462 487.635 L 47.492 507.824 L 53.713 510.8 L 51.343 543.078 Z" style="fill: rgb(26, 26, 26);" transform="matrix(0.992825, -0.119576, 0.119576, 0.992825, -59.671158, 9.313454)" bx:origin="0.5 0.5"/>
  <path d="M 12.5 575.558 C 36.5 575.558 75 512.779 75 450 C 75 512.779 113.5 575.558 137.5 575.558 C 137.5 575.558 12.5 575.558 12.5 575.558 Z" style="fill: rgb(26, 26, 26);" bx:origin="0.5 0.5"/>
  <path d="M 201.343 543.078 L 198.305 542.969 L 200.678 512.507 L 193.748 509.522 L 195.955 487.415 L 191.832 487.063 L 199.109 460.703 L 203.061 487.961 L 199.462 487.635 L 197.492 507.824 L 203.713 510.8 L 201.343 543.078 Z" style="fill: rgb(26, 26, 26);" transform="matrix(0.992825, -0.119576, 0.119576, 0.992825, -58.595023, 27.249866)" bx:origin="0.5 0.5"/>
  <path d="M 125 375 C 173 375 250 250 250 125 C 250 250 327 375 375 375 C 375 375 125 375 125 375 Z" style="fill: rgb(26, 26, 26);" transform="matrix(0.5041700005531311, 0, 0, 0.5041700005531311, 98.9521942138673, 386.97879028320307)" bx:origin="0.5 0.5"/>
  <path d="M 501.343 543.078 L 498.305 542.969 L 500.678 512.507 L 493.748 509.522 L 495.955 487.415 L 491.832 487.063 L 499.109 460.703 L 503.061 487.961 L 499.462 487.635 L 497.492 507.824 L 503.713 510.8 L 501.343 543.078 Z" style="fill: rgb(26, 26, 26);" transform="matrix(0.992825, -0.119576, 0.119576, 0.992825, -56.442578, 63.1227)" bx:origin="0.5 0.5"/>
  <path d="M 351.343 543.078 L 348.305 542.969 L 350.678 512.507 L 343.748 509.522 L 345.955 487.415 L 341.832 487.063 L 349.109 460.703 L 353.061 487.961 L 349.462 487.635 L 347.492 507.824 L 353.713 510.8 L 351.343 543.078 Z" style="fill: rgb(26, 26, 26);" transform="matrix(0.992825, -0.119576, 0.119576, 0.992825, -57.518781, 45.186259)" bx:origin="0.5 0.5"/>
  <path d="M 311.973 126.042 C 336.174 126.042 374.995 63.021 374.995 0 C 374.995 63.021 413.816 126.042 438.016 126.042 C 438.016 126.042 311.973 126.042 311.973 126.042 Z" style="fill: rgb(26, 26, 26);" transform="matrix(1, 0, 0, 1, 1.1368683772161603e-13, 450)" bx:origin="0.5 0.5"/>
  <path d="M 311.973 126.042 C 336.174 126.042 374.995 63.021 374.995 0 C 374.995 63.021 413.816 126.042 438.016 126.042 C 438.016 126.042 311.973 126.042 311.973 126.042 Z" style="fill: rgb(26, 26, 26);" transform="matrix(1, 0, 0, 1, 149.99766540527355, 450)" bx:origin="0.5 0.5"/>
  <ellipse style="fill: rgb(26, 26, 26);" transform="matrix(0, -1.000005, 0.999994, 0, 486.020336, 553.934901)" cx="65.973" cy="38.98" rx="4.68" ry="6.707"/>
  <path d="M 74.611 893.142 L 71.573 893.033 L 73.946 862.571 L 67.016 859.586 L 69.223 837.479 L 65.1 837.127 L 72.377 810.767 L 76.329 838.025 L 72.73 837.699 L 70.76 857.888 L 76.981 860.864 L 74.611 893.142 Z" style="fill: rgb(26, 26, 26);" transform="matrix(0.992825, -0.119576, 0.119576, 0.992825, -101.363749, 14.607501)" bx:origin="0.5 0.5"/>
  <path d="M 12.5 800.558 C 36.5 800.558 75 737.779 75 675 C 75 737.779 113.5 800.558 137.5 800.558 C 137.5 800.558 12.5 800.558 12.5 800.558 Z" style="fill: rgb(26, 26, 26);" bx:origin="0.5 0.5"/>
  <path d="M 125 375 C 173 375 250 250 250 125 C 250 250 327 375 375 375 C 375 375 125 375 125 375 Z" style="fill: rgb(26, 26, 26);" transform="matrix(0.5041700005531311, 0, 0, 0.5041700005531311, 98.9521942138673, 611.9788208007812)" bx:origin="0.5 0.5"/>
  <path d="M 311.973 126.042 C 336.174 126.042 374.995 63.021 374.995 0 C 374.995 63.021 413.816 126.042 438.016 126.042 C 438.016 126.042 311.973 126.042 311.973 126.042 Z" style="fill: rgb(26, 26, 26);" transform="matrix(1, 0, 0, 1, 1.1368683772161603e-13, 675)" bx:origin="0.5 0.5"/>
  <path d="M 311.973 126.042 C 336.174 126.042 374.995 63.021 374.995 0 C 374.995 63.021 413.816 126.042 438.016 126.042 C 438.016 126.042 311.973 126.042 311.973 126.042 Z" style="fill: rgb(26, 26, 26);" transform="matrix(1, 0, 0, 1, 149.99766540527355, 675)" bx:origin="0.5 0.5"/>
  <ellipse style="fill: rgb(26, 26, 26);" transform="matrix(0, -0.999998, 0.999998, 0, 486.020399, 778.934806)" cx="65.973" cy="38.98" rx="4.68" ry="6.707"/>
  <path d="M 36.301 574.552 C 36.301 574.549 111.948 574.9 111.948 574.908 C 110.901 633.783 118 675.002 118 675.002 L 32 675.002 C 32 675.002 38.405 633.694 36.301 574.552 Z" style="fill: rgb(26, 26, 26);" bx:origin="0.5 0.5"/>
  <path d="M 186.296 574.552 C 186.296 574.549 261.943 574.9 261.943 574.908 C 260.896 633.783 267.995 675.002 267.995 675.002 L 181.995 675.002 C 181.995 675.002 188.4 633.694 186.296 574.552 Z" style="fill: rgb(26, 26, 26);" bx:origin="0.5 0.5"/>
  <path d="M 336.301 574.552 C 336.301 574.549 411.948 574.9 411.948 574.908 C 410.901 633.783 418 675.002 418 675.002 L 332 675.002 C 332 675.002 338.405 633.694 336.301 574.552 Z" style="fill: rgb(26, 26, 26);" bx:origin="0.5 0.5"/>
  <path d="M 486.296 574.552 C 486.296 574.549 561.943 574.9 561.943 574.908 C 560.896 633.783 567.995 675.002 567.995 675.002 L 481.995 675.002 C 481.995 675.002 488.4 633.694 486.296 574.552 Z" style="fill: rgb(26, 26, 26);" bx:origin="0.5 0.5"/>
  <g transform="matrix(1, 0, 0, 1, 149.892838, 225.003647)">
    <path style="fill: rgb(26, 26, 26);" d="M 335.153 93.499 C 337.175 92.945 335.814 94.051 335.982 94.06 C 342.584 94.415 348.704 102.566 345.248 108.349 C 343.646 111.033 340.684 113.018 337.48 113.018 C 333.215 113.018 329.852 109.865 328.782 106.397 L 328.782 106.398 C 329.936 109.491 335.028 110.687 337.265 110.653 C 339.156 110.624 342.051 109.158 343.322 106.15 C 344.948 102.301 341.431 93.6 334.856 93.594 L 335.153 93.499 Z" transform="matrix(-0.316824, 0.948484, -0.948484, -0.316824, 543.809829, -185.090946)" bx:origin="0.491 0.516"/>
    <path style="fill: rgb(26, 26, 26);" d="M 407.983 113.106 C 410.005 113.66 408.644 112.554 408.812 112.545 C 415.414 112.19 421.534 104.039 418.078 98.256 C 416.476 95.572 413.514 93.587 410.31 93.587 C 406.045 93.587 402.682 96.74 401.612 100.208 L 401.612 100.207 C 402.766 97.114 407.858 95.918 410.095 95.952 C 411.986 95.981 414.881 97.447 416.152 100.455 C 417.778 104.304 414.261 113.005 407.686 113.011 L 407.983 113.106 Z" transform="matrix(0.316824, 0.948484, -0.948484, 0.316824, 379.03492, -319.626818)" bx:origin="0.491 0.484"/>
  </g>
  <g transform="matrix(1, 0, 0, 1, 299.792725, 225.009415)">
    <path style="fill: rgb(26, 26, 26);" d="M 159.205 108.831 L 158.909 108.929 C 165.437 108.934 170.308 116.449 167.043 122.104 C 165.527 124.729 163.187 126.695 160.155 126.695 C 156.304 126.695 154.027 125.249 152.883 122.073 L 152.882 122.072 C 153.945 125.632 157.485 129.082 161.716 129.082 C 164.897 129.082 168.038 126.97 169.628 124.214 C 173.056 118.278 166.579 109.771 160.029 109.408 C 159.863 109.399 161.211 108.263 159.205 108.831 Z" transform="matrix(-0.674071, 0.738666, -0.738666, -0.674071, 360.423174, 78.978252)" bx:origin="0.491 0.516"/>
    <path style="fill: rgb(26, 26, 26);" d="M 284.04 129.169 L 283.744 129.071 C 290.272 129.066 295.143 121.551 291.878 115.896 C 290.362 113.271 288.022 111.305 284.99 111.305 C 281.139 111.305 278.862 112.751 277.718 115.927 L 277.717 115.928 C 278.78 112.368 282.32 108.918 286.551 108.918 C 289.732 108.918 292.873 111.03 294.463 113.786 C 297.891 119.722 291.414 128.229 284.864 128.592 C 284.698 128.601 286.046 129.737 284.04 129.169 Z" transform="matrix(0.674071, 0.738666, -0.738666, 0.674071, 181.641562, -173.673318)" bx:origin="0.491 0.484"/>
  </g>
  <g transform="matrix(1, 0, 0, 1, 0, 225.003769)">
    <path style="fill: rgb(26, 26, 26);" d="M 335.153 93.499 C 337.175 92.945 335.814 94.051 335.982 94.06 C 342.584 94.415 348.704 102.566 345.248 108.349 C 343.646 111.033 340.684 113.018 337.48 113.018 C 333.215 113.018 329.852 109.865 328.782 106.397 L 328.782 106.398 C 329.936 109.491 335.028 110.687 337.265 110.653 C 339.156 110.624 342.051 109.158 343.322 106.15 C 344.948 102.301 341.431 93.6 334.856 93.594 L 335.153 93.499 Z" transform="matrix(-0.316824, 0.948484, -0.948484, -0.316824, 543.809829, -185.090946)" bx:origin="0.491 0.516"/>
    <path style="fill: rgb(26, 26, 26);" d="M 407.983 113.106 C 410.005 113.66 408.644 112.554 408.812 112.545 C 415.414 112.19 421.534 104.039 418.078 98.256 C 416.476 95.572 413.514 93.587 410.31 93.587 C 406.045 93.587 402.682 96.74 401.612 100.208 L 401.612 100.207 C 402.766 97.114 407.858 95.918 410.095 95.952 C 411.986 95.981 414.881 97.447 416.152 100.455 C 417.778 104.304 414.261 113.005 407.686 113.011 L 407.983 113.106 Z" transform="matrix(0.316824, 0.948484, -0.948484, 0.316824, 379.03492, -319.626818)" bx:origin="0.491 0.484"/>
  </g>
  <g transform="matrix(1, 0, 0, 1, 149.795074, 225.009415)">
    <path style="fill: rgb(26, 26, 26);" d="M 159.205 108.831 L 158.909 108.929 C 165.437 108.934 170.308 116.449 167.043 122.104 C 165.527 124.729 163.187 126.695 160.155 126.695 C 156.304 126.695 154.027 125.249 152.883 122.073 L 152.882 122.072 C 153.945 125.632 157.485 129.082 161.716 129.082 C 164.897 129.082 168.038 126.97 169.628 124.214 C 173.056 118.278 166.579 109.771 160.029 109.408 C 159.863 109.399 161.211 108.263 159.205 108.831 Z" transform="matrix(-0.674071, 0.738666, -0.738666, -0.674071, 360.423174, 78.978252)" bx:origin="0.491 0.516"/>
    <path style="fill: rgb(26, 26, 26);" d="M 284.04 129.169 L 283.744 129.071 C 290.272 129.066 295.143 121.551 291.878 115.896 C 290.362 113.271 288.022 111.305 284.99 111.305 C 281.139 111.305 278.862 112.751 277.718 115.927 L 277.717 115.928 C 278.78 112.368 282.32 108.918 286.551 108.918 C 289.732 108.918 292.873 111.03 294.463 113.786 C 297.891 119.722 291.414 128.229 284.864 128.592 C 284.698 128.601 286.046 129.737 284.04 129.169 Z" transform="matrix(0.674071, 0.738666, -0.738666, 0.674071, 181.641562, -173.673318)" bx:origin="0.491 0.484"/>
  </g>
  <g transform="matrix(1, 0, 0, 1, 0, 225.003769)">
    <path style="fill: rgb(26, 26, 26);" d="M 159.205 108.831 L 158.909 108.929 C 165.437 108.934 170.308 116.449 167.043 122.104 C 165.527 124.729 163.187 126.695 160.155 126.695 C 156.304 126.695 154.027 125.249 152.883 122.073 L 152.882 122.072 C 153.945 125.632 157.485 129.082 161.716 129.082 C 164.897 129.082 168.038 126.97 169.628 124.214 C 173.056 118.278 166.579 109.771 160.029 109.408 C 159.863 109.399 161.211 108.263 159.205 108.831 Z" transform="matrix(-0.674071, 0.738666, -0.738666, -0.674071, 360.423174, 78.978252)" bx:origin="0.491 0.516"/>
    <path style="fill: rgb(26, 26, 26);" d="M 284.04 129.169 L 283.744 129.071 C 290.272 129.066 295.143 121.551 291.878 115.896 C 290.362 113.271 288.022 111.305 284.99 111.305 C 281.139 111.305 278.862 112.751 277.718 115.927 L 277.717 115.928 C 278.78 112.368 282.32 108.918 286.551 108.918 C 289.732 108.918 292.873 111.03 294.463 113.786 C 297.891 119.722 291.414 128.229 284.864 128.592 C 284.698 128.601 286.046 129.737 284.04 129.169 Z" transform="matrix(0.674071, 0.738666, -0.738666, 0.674071, 181.641562, -173.673318)" bx:origin="0.491 0.484"/>
  </g>
  <g transform="matrix(1, 0, 0, 1, 149.892838, 450.003632)">
    <path style="fill: rgb(26, 26, 26);" d="M 335.153 93.499 C 337.175 92.945 335.814 94.051 335.982 94.06 C 342.584 94.415 348.704 102.566 345.248 108.349 C 343.646 111.033 340.684 113.018 337.48 113.018 C 333.215 113.018 329.852 109.865 328.782 106.397 L 328.782 106.398 C 329.936 109.491 335.028 110.687 337.265 110.653 C 339.156 110.624 342.051 109.158 343.322 106.15 C 344.948 102.301 341.431 93.6 334.856 93.594 L 335.153 93.499 Z" transform="matrix(-0.316824, 0.948484, -0.948484, -0.316824, 543.809829, -185.090946)" bx:origin="0.491 0.516"/>
    <path style="fill: rgb(26, 26, 26);" d="M 407.983 113.106 C 410.005 113.66 408.644 112.554 408.812 112.545 C 415.414 112.19 421.534 104.039 418.078 98.256 C 416.476 95.572 413.514 93.587 410.31 93.587 C 406.045 93.587 402.682 96.74 401.612 100.208 L 401.612 100.207 C 402.766 97.114 407.858 95.918 410.095 95.952 C 411.986 95.981 414.881 97.447 416.152 100.455 C 417.778 104.304 414.261 113.005 407.686 113.011 L 407.983 113.106 Z" transform="matrix(0.316824, 0.948484, -0.948484, 0.316824, 379.03492, -319.626818)" bx:origin="0.491 0.484"/>
  </g>
  <g transform="matrix(1, 0, 0, 1, 299.792725, 450.00943)">
    <path style="fill: rgb(26, 26, 26);" d="M 159.205 108.831 L 158.909 108.929 C 165.437 108.934 170.308 116.449 167.043 122.104 C 165.527 124.729 163.187 126.695 160.155 126.695 C 156.304 126.695 154.027 125.249 152.883 122.073 L 152.882 122.072 C 153.945 125.632 157.485 129.082 161.716 129.082 C 164.897 129.082 168.038 126.97 169.628 124.214 C 173.056 118.278 166.579 109.771 160.029 109.408 C 159.863 109.399 161.211 108.263 159.205 108.831 Z" transform="matrix(-0.674071, 0.738666, -0.738666, -0.674071, 360.423174, 78.978252)" bx:origin="0.491 0.516"/>
    <path style="fill: rgb(26, 26, 26);" d="M 284.04 129.169 L 283.744 129.071 C 290.272 129.066 295.143 121.551 291.878 115.896 C 290.362 113.271 288.022 111.305 284.99 111.305 C 281.139 111.305 278.862 112.751 277.718 115.927 L 277.717 115.928 C 278.78 112.368 282.32 108.918 286.551 108.918 C 289.732 108.918 292.873 111.03 294.463 113.786 C 297.891 119.722 291.414 128.229 284.864 128.592 C 284.698 128.601 286.046 129.737 284.04 129.169 Z" transform="matrix(0.674071, 0.738666, -0.738666, 0.674071, 181.641562, -173.673318)" bx:origin="0.491 0.484"/>
  </g>
  <g transform="matrix(1, 0, 0, 1, 0, 450.003784)">
    <path style="fill: rgb(26, 26, 26);" d="M 335.153 93.499 C 337.175 92.945 335.814 94.051 335.982 94.06 C 342.584 94.415 348.704 102.566 345.248 108.349 C 343.646 111.033 340.684 113.018 337.48 113.018 C 333.215 113.018 329.852 109.865 328.782 106.397 L 328.782 106.398 C 329.936 109.491 335.028 110.687 337.265 110.653 C 339.156 110.624 342.051 109.158 343.322 106.15 C 344.948 102.301 341.431 93.6 334.856 93.594 L 335.153 93.499 Z" transform="matrix(-0.316824, 0.948484, -0.948484, -0.316824, 543.809829, -185.090946)" bx:origin="0.491 0.516"/>
    <path style="fill: rgb(26, 26, 26);" d="M 407.983 113.106 C 410.005 113.66 408.644 112.554 408.812 112.545 C 415.414 112.19 421.534 104.039 418.078 98.256 C 416.476 95.572 413.514 93.587 410.31 93.587 C 406.045 93.587 402.682 96.74 401.612 100.208 L 401.612 100.207 C 402.766 97.114 407.858 95.918 410.095 95.952 C 411.986 95.981 414.881 97.447 416.152 100.455 C 417.778 104.304 414.261 113.005 407.686 113.011 L 407.983 113.106 Z" transform="matrix(0.316824, 0.948484, -0.948484, 0.316824, 379.03492, -319.626818)" bx:origin="0.491 0.484"/>
  </g>
  <g transform="matrix(1, 0, 0, 1, 149.795074, 450.009399)">
    <path style="fill: rgb(26, 26, 26);" d="M 159.205 108.831 L 158.909 108.929 C 165.437 108.934 170.308 116.449 167.043 122.104 C 165.527 124.729 163.187 126.695 160.155 126.695 C 156.304 126.695 154.027 125.249 152.883 122.073 L 152.882 122.072 C 153.945 125.632 157.485 129.082 161.716 129.082 C 164.897 129.082 168.038 126.97 169.628 124.214 C 173.056 118.278 166.579 109.771 160.029 109.408 C 159.863 109.399 161.211 108.263 159.205 108.831 Z" transform="matrix(-0.674071, 0.738666, -0.738666, -0.674071, 360.423174, 78.978252)" bx:origin="0.491 0.516"/>
    <path style="fill: rgb(26, 26, 26);" d="M 284.04 129.169 L 283.744 129.071 C 290.272 129.066 295.143 121.551 291.878 115.896 C 290.362 113.271 288.022 111.305 284.99 111.305 C 281.139 111.305 278.862 112.751 277.718 115.927 L 277.717 115.928 C 278.78 112.368 282.32 108.918 286.551 108.918 C 289.732 108.918 292.873 111.03 294.463 113.786 C 297.891 119.722 291.414 128.229 284.864 128.592 C 284.698 128.601 286.046 129.737 284.04 129.169 Z" transform="matrix(0.674071, 0.738666, -0.738666, 0.674071, 181.641562, -173.673318)" bx:origin="0.491 0.484"/>
  </g>
  <g transform="matrix(1, 0, 0, 1, 0, 450.003784)">
    <path style="fill: rgb(26, 26, 26);" d="M 159.205 108.831 L 158.909 108.929 C 165.437 108.934 170.308 116.449 167.043 122.104 C 165.527 124.729 163.187 126.695 160.155 126.695 C 156.304 126.695 154.027 125.249 152.883 122.073 L 152.882 122.072 C 153.945 125.632 157.485 129.082 161.716 129.082 C 164.897 129.082 168.038 126.97 169.628 124.214 C 173.056 118.278 166.579 109.771 160.029 109.408 C 159.863 109.399 161.211 108.263 159.205 108.831 Z" transform="matrix(-0.674071, 0.738666, -0.738666, -0.674071, 360.423174, 78.978252)" bx:origin="0.491 0.516"/>
    <path style="fill: rgb(26, 26, 26);" d="M 284.04 129.169 L 283.744 129.071 C 290.272 129.066 295.143 121.551 291.878 115.896 C 290.362 113.271 288.022 111.305 284.99 111.305 C 281.139 111.305 278.862 112.751 277.718 115.927 L 277.717 115.928 C 278.78 112.368 282.32 108.918 286.551 108.918 C 289.732 108.918 292.873 111.03 294.463 113.786 C 297.891 119.722 291.414 128.229 284.864 128.592 C 284.698 128.601 286.046 129.737 284.04 129.169 Z" transform="matrix(0.674071, 0.738666, -0.738666, 0.674071, 181.641562, -173.673318)" bx:origin="0.491 0.484"/>
  </g>
  <g transform="matrix(1, 0, 0, 1, 149.892838, 675.007446)">
    <path style="fill: rgb(26, 26, 26);" d="M 335.153 93.499 C 337.175 92.945 335.814 94.051 335.982 94.06 C 342.584 94.415 348.704 102.566 345.248 108.349 C 343.646 111.033 340.684 113.018 337.48 113.018 C 333.215 113.018 329.852 109.865 328.782 106.397 L 328.782 106.398 C 329.936 109.491 335.028 110.687 337.265 110.653 C 339.156 110.624 342.051 109.158 343.322 106.15 C 344.948 102.301 341.431 93.6 334.856 93.594 L 335.153 93.499 Z" transform="matrix(-0.316824, 0.948484, -0.948484, -0.316824, 543.809829, -185.090946)" bx:origin="0.491 0.516"/>
    <path style="fill: rgb(26, 26, 26);" d="M 407.983 113.106 C 410.005 113.66 408.644 112.554 408.812 112.545 C 415.414 112.19 421.534 104.039 418.078 98.256 C 416.476 95.572 413.514 93.587 410.31 93.587 C 406.045 93.587 402.682 96.74 401.612 100.208 L 401.612 100.207 C 402.766 97.114 407.858 95.918 410.095 95.952 C 411.986 95.981 414.881 97.447 416.152 100.455 C 417.778 104.304 414.261 113.005 407.686 113.011 L 407.983 113.106 Z" transform="matrix(0.316824, 0.948484, -0.948484, 0.316824, 379.03492, -319.626818)" bx:origin="0.491 0.484"/>
  </g>
  <g transform="matrix(1, 0, 0, 1, 299.792725, 675.013184)">
    <path style="fill: rgb(26, 26, 26);" d="M 159.205 108.831 L 158.909 108.929 C 165.437 108.934 170.308 116.449 167.043 122.104 C 165.527 124.729 163.187 126.695 160.155 126.695 C 156.304 126.695 154.027 125.249 152.883 122.073 L 152.882 122.072 C 153.945 125.632 157.485 129.082 161.716 129.082 C 164.897 129.082 168.038 126.97 169.628 124.214 C 173.056 118.278 166.579 109.771 160.029 109.408 C 159.863 109.399 161.211 108.263 159.205 108.831 Z" transform="matrix(-0.674071, 0.738666, -0.738666, -0.674071, 360.423174, 78.978252)" bx:origin="0.491 0.516"/>
    <path style="fill: rgb(26, 26, 26);" d="M 284.04 129.169 L 283.744 129.071 C 290.272 129.066 295.143 121.551 291.878 115.896 C 290.362 113.271 288.022 111.305 284.99 111.305 C 281.139 111.305 278.862 112.751 277.718 115.927 L 277.717 115.928 C 278.78 112.368 282.32 108.918 286.551 108.918 C 289.732 108.918 292.873 111.03 294.463 113.786 C 297.891 119.722 291.414 128.229 284.864 128.592 C 284.698 128.601 286.046 129.737 284.04 129.169 Z" transform="matrix(0.674071, 0.738666, -0.738666, 0.674071, 181.641562, -173.673318)" bx:origin="0.491 0.484"/>
  </g>
  <g transform="matrix(1, 0, 0, 1, 0, 675.007568)">
    <path style="fill: rgb(26, 26, 26);" d="M 335.153 93.499 C 337.175 92.945 335.814 94.051 335.982 94.06 C 342.584 94.415 348.704 102.566 345.248 108.349 C 343.646 111.033 340.684 113.018 337.48 113.018 C 333.215 113.018 329.852 109.865 328.782 106.397 L 328.782 106.398 C 329.936 109.491 335.028 110.687 337.265 110.653 C 339.156 110.624 342.051 109.158 343.322 106.15 C 344.948 102.301 341.431 93.6 334.856 93.594 L 335.153 93.499 Z" transform="matrix(-0.316824, 0.948484, -0.948484, -0.316824, 543.809829, -185.090946)" bx:origin="0.491 0.516"/>
    <path style="fill: rgb(26, 26, 26);" d="M 407.983 113.106 C 410.005 113.66 408.644 112.554 408.812 112.545 C 415.414 112.19 421.534 104.039 418.078 98.256 C 416.476 95.572 413.514 93.587 410.31 93.587 C 406.045 93.587 402.682 96.74 401.612 100.208 L 401.612 100.207 C 402.766 97.114 407.858 95.918 410.095 95.952 C 411.986 95.981 414.881 97.447 416.152 100.455 C 417.778 104.304 414.261 113.005 407.686 113.011 L 407.983 113.106 Z" transform="matrix(0.316824, 0.948484, -0.948484, 0.316824, 379.03492, -319.626818)" bx:origin="0.491 0.484"/>
  </g>
  <g transform="matrix(1, 0, 0, 1, 149.795074, 675.013184)">
    <path style="fill: rgb(26, 26, 26);" d="M 159.205 108.831 L 158.909 108.929 C 165.437 108.934 170.308 116.449 167.043 122.104 C 165.527 124.729 163.187 126.695 160.155 126.695 C 156.304 126.695 154.027 125.249 152.883 122.073 L 152.882 122.072 C 153.945 125.632 157.485 129.082 161.716 129.082 C 164.897 129.082 168.038 126.97 169.628 124.214 C 173.056 118.278 166.579 109.771 160.029 109.408 C 159.863 109.399 161.211 108.263 159.205 108.831 Z" transform="matrix(-0.674071, 0.738666, -0.738666, -0.674071, 360.423174, 78.978252)" bx:origin="0.491 0.516"/>
    <path style="fill: rgb(26, 26, 26);" d="M 284.04 129.169 L 283.744 129.071 C 290.272 129.066 295.143 121.551 291.878 115.896 C 290.362 113.271 288.022 111.305 284.99 111.305 C 281.139 111.305 278.862 112.751 277.718 115.927 L 277.717 115.928 C 278.78 112.368 282.32 108.918 286.551 108.918 C 289.732 108.918 292.873 111.03 294.463 113.786 C 297.891 119.722 291.414 128.229 284.864 128.592 C 284.698 128.601 286.046 129.737 284.04 129.169 Z" transform="matrix(0.674071, 0.738666, -0.738666, 0.674071, 181.641562, -173.673318)" bx:origin="0.491 0.484"/>
  </g>
  <g transform="matrix(1, 0, 0, 1, 0, 675.007568)">
    <path style="fill: rgb(26, 26, 26);" d="M 159.205 108.831 L 158.909 108.929 C 165.437 108.934 170.308 116.449 167.043 122.104 C 165.527 124.729 163.187 126.695 160.155 126.695 C 156.304 126.695 154.027 125.249 152.883 122.073 L 152.882 122.072 C 153.945 125.632 157.485 129.082 161.716 129.082 C 164.897 129.082 168.038 126.97 169.628 124.214 C 173.056 118.278 166.579 109.771 160.029 109.408 C 159.863 109.399 161.211 108.263 159.205 108.831 Z" transform="matrix(-0.674071, 0.738666, -0.738666, -0.674071, 360.423174, 78.978252)" bx:origin="0.491 0.516"/>
    <path style="fill: rgb(26, 26, 26);" d="M 284.04 129.169 L 283.744 129.071 C 290.272 129.066 295.143 121.551 291.878 115.896 C 290.362 113.271 288.022 111.305 284.99 111.305 C 281.139 111.305 278.862 112.751 277.718 115.927 L 277.717 115.928 C 278.78 112.368 282.32 108.918 286.551 108.918 C 289.732 108.918 292.873 111.03 294.463 113.786 C 297.891 119.722 291.414 128.229 284.864 128.592 C 284.698 128.601 286.046 129.737 284.04 129.169 Z" transform="matrix(0.674071, 0.738666, -0.738666, 0.674071, 181.641562, -173.673318)" bx:origin="0.491 0.484"/>
  </g>
</svg>